<?xml version="1.0" encoding="utf-8"?>
<!-- Generator: Adobe Illustrator 21.0.2, SVG Export Plug-In . SVG Version: 6.00 Build 0)  -->
<svg version="1.1" id="Livello_1" xmlns="http://www.w3.org/2000/svg" xmlns:xlink="http://www.w3.org/1999/xlink" x="0px" y="0px"
	 viewBox="0 0 1920 1080" style="enable-background:new 0 0 1920 1080;" xml:space="preserve">
<style type="text/css">
	.st0{fill:url(#SVGID_1_);}
	.st1{fill:url(#SVGID_2_);}
	.st2{fill:#445A6E;}
	.st3{fill:#9FA6AC;}
	.st4{fill:#2E3C49;}
	.st5{fill:#335763;}
	.st6{fill:#51706A;}
	.st7{fill:#759FBF;}
	.st8{fill:#6A97BA;}
	.st9{fill:#B89C82;}
	.st10{fill:#E1C9AC;}
	.st11{fill:#8B7C69;}
	.st12{fill:#AFA69D;}
	.st13{fill:#86705D;}
	.st14{fill:#2683A3;}
	.st15{fill:#489DB5;}
	.st16{fill:none;stroke:#6DB1C4;stroke-miterlimit:10;}
	.st17{fill:#EDE1D0;}
	.st18{fill:#D0C0A6;}
	.st19{fill:#907E6C;}
	.st20{fill:#718689;}
	.st21{fill:#8FDFE6;}
	.st22{fill:#7DC4CE;}
	.st23{fill:#8C3960;}
	.st24{fill:#B6B1B1;}
	.st25{fill:#E5E6D8;}
	.st26{fill:#027A7E;}
	.st27{fill:#015859;}
	.st28{fill:url(#SVGID_3_);}
	.st29{fill:url(#SVGID_4_);}
	.st30{fill:#F2EE66;}
	.st31{opacity:0.8;fill:#F2EE66;}
	.st32{opacity:0.6;fill:#F2EE66;}
	.st33{opacity:0.4;fill:#F2EE66;}
	.st34{opacity:0.2;fill:#F2EE66;}
	.st35{fill:none;stroke:#000000;stroke-miterlimit:10;}
	.st36{fill:#175958;}
	.st37{fill:#24908D;}
	.st38{fill:#144C4B;}
	.st39{fill:url(#SVGID_5_);}
	.st40{fill:#1F8138;}
</style>
<g>
	<linearGradient id="SVGID_1_" gradientUnits="userSpaceOnUse" x1="0" y1="540" x2="1920" y2="540">
		<stop  offset="0" style="stop-color:#1A6765"/>
		<stop  offset="1" style="stop-color:#4FC3F7"/>
	</linearGradient>
	<rect class="st0" width="1920" height="1080"/>
</g>
<linearGradient id="SVGID_2_" gradientUnits="userSpaceOnUse" x1="961.5937" y1="839.9105" x2="959.4818" y2="1044.764">
	<stop  offset="0" style="stop-color:#1C7332"/>
	<stop  offset="1" style="stop-color:#19652C"/>
</linearGradient>
<polygon class="st1" points="1920,1080 0,1080 1,812 1921,812 "/>
<polygon class="st2" points="0.6,543 111.3,387.7 351.9,609 421.7,525.2 534.8,644.8 563.7,598 775.8,811.8 0.6,812.5 "/>
<polygon class="st3" points="564.3,600.1 776,811.8 682.3,811.8 646.1,727.9 638.8,770.6 "/>
<polygon class="st3" points="421.1,525.9 534.2,645.5 489.7,656.5 443.9,561.6 441.5,567.1 "/>
<polygon class="st3" points="111.9,387 352.5,608.3 289.9,627.6 243,513.5 223.8,558.8 221.4,525.9 173.2,564.3 182.9,476.4 "/>
<polygon class="st3" points="54.1,627.6 120.3,717 129.9,700.5 209.3,777.4 188.9,693.6 "/>
<polygon class="st3" points="453.6,688.1 547.4,777.4 477.6,777.4 481.2,744.4 466.8,717 459.6,727.9 442.7,673 "/>
<polygon class="st4" points="111.9,387 0,542.4 0.6,641.4 80.6,459.9 78.2,490.1 "/>
<polyline class="st4" points="54.1,627.6 27.7,682.6 40.9,677.1 0.6,747.7 0.6,687.7 "/>
<polygon class="st5" points="1,812 645,812 0.5,846.9 "/>
<polygon class="st6" points="645,812 1,847 0.5,859.1 "/>
<polygon class="st4" points="443,673 347,777 424,753 433,713 421,715 "/>
<g>
	<polygon class="st7" points="1739,762 1739,793 1226,793 1226,762 1265,762 1265,701 1317,701 1317,762 1342,762 1342,679 
		1358,679 1358,743 1371,743 1371,762 1405,762 1405,711 1428,711 1428,762 1448,762 1448,689 1475,689 1475,711 1491,711 1491,762 
		1526,762 1526,666 1566,666 1566,651 1568,651 1568,666 1580,666 1580,701 1612,701 1612,724 1668,724 1668,762 1673,762 1673,731 
		1696,731 1696,762 	"/>
	<polygon class="st8" points="1739,793 1739,812 1226,812 1226,775 1243,775 1243,732 1274,732 1274,775 1286,775 1286,752 
		1300,752 1300,775 1329,775 1329,721 1346,721 1346,688 1380,688 1380,721 1443,721 1443,641 1496,641 1496,671 1532,671 1532,721 
		1583,721 1583,699 1613,699 1613,721 1643,721 1643,767 1691,767 1691,752 1711,752 1711,793 	"/>
</g>
<g>
	<rect x="1358" y="673" class="st9" width="54" height="139"/>
	<rect x="1358" y="673" class="st10" width="54" height="3.5"/>
	<rect x="1358" y="744.3" class="st10" width="54" height="3.5"/>
	<g>
		<rect x="1361.1" y="684.7" class="st11" width="3.1" height="11.7"/>
		<rect x="1361.1" y="694.6" class="st12" width="3.1" height="1.7"/>
	</g>
	<g>
		<rect x="1370.7" y="684.7" class="st11" width="3.1" height="11.7"/>
		<rect x="1370.7" y="694.6" class="st12" width="3.1" height="1.7"/>
	</g>
	<g>
		<rect x="1382.1" y="684.7" class="st11" width="3.1" height="11.7"/>
		<rect x="1382.1" y="694.6" class="st12" width="3.1" height="1.7"/>
	</g>
	<g>
		<rect x="1394" y="684.7" class="st11" width="3.1" height="11.7"/>
		<rect x="1394" y="694.6" class="st12" width="3.1" height="1.7"/>
	</g>
	<g>
		<rect x="1404.1" y="684.7" class="st11" width="3.1" height="11.7"/>
		<rect x="1404.1" y="694.6" class="st12" width="3.1" height="1.7"/>
	</g>
	<g>
		<rect x="1361.1" y="702.2" class="st11" width="3.1" height="11.7"/>
		<rect x="1361.1" y="712.1" class="st12" width="3.1" height="1.7"/>
	</g>
	<g>
		<rect x="1370.7" y="702.2" class="st11" width="3.1" height="11.7"/>
		<rect x="1370.7" y="712.1" class="st12" width="3.1" height="1.7"/>
	</g>
	<g>
		<rect x="1382.1" y="702.2" class="st11" width="3.1" height="11.7"/>
		<rect x="1382.1" y="712.1" class="st12" width="3.1" height="1.7"/>
	</g>
	<g>
		<rect x="1394" y="702.2" class="st11" width="3.1" height="11.7"/>
		<rect x="1394" y="712.1" class="st12" width="3.1" height="1.7"/>
	</g>
	<g>
		<rect x="1404.1" y="702.2" class="st11" width="3.1" height="11.7"/>
		<rect x="1404.1" y="712.1" class="st12" width="3.1" height="1.7"/>
	</g>
	<g>
		<rect x="1361.1" y="719.7" class="st11" width="3.1" height="11.7"/>
		<rect x="1361.1" y="729.7" class="st12" width="3.1" height="1.7"/>
	</g>
	<g>
		<rect x="1370.7" y="719.7" class="st11" width="3.1" height="11.7"/>
		<rect x="1370.7" y="729.7" class="st12" width="3.1" height="1.7"/>
	</g>
	<g>
		<rect x="1382.1" y="719.7" class="st11" width="3.1" height="11.7"/>
		<rect x="1382.1" y="729.7" class="st12" width="3.1" height="1.7"/>
	</g>
	<g>
		<rect x="1394" y="719.7" class="st11" width="3.1" height="11.7"/>
		<rect x="1394" y="729.7" class="st12" width="3.1" height="1.7"/>
	</g>
	<g>
		<rect x="1404.1" y="719.7" class="st11" width="3.1" height="11.7"/>
		<rect x="1404.1" y="729.7" class="st12" width="3.1" height="1.7"/>
	</g>
	<g>
		<rect x="1361.1" y="755.9" class="st11" width="3.1" height="11.7"/>
		<rect x="1361.1" y="765.9" class="st12" width="3.1" height="1.7"/>
	</g>
	<g>
		<rect x="1370.7" y="755.9" class="st11" width="3.1" height="11.7"/>
		<rect x="1370.7" y="765.9" class="st12" width="3.1" height="1.7"/>
	</g>
	<g>
		<rect x="1382.1" y="755.9" class="st11" width="3.1" height="11.7"/>
		<rect x="1382.1" y="765.9" class="st12" width="3.1" height="1.7"/>
	</g>
	<g>
		<rect x="1394" y="755.9" class="st11" width="3.1" height="11.7"/>
		<rect x="1394" y="765.9" class="st12" width="3.1" height="1.7"/>
	</g>
	<g>
		<rect x="1404.1" y="755.9" class="st11" width="3.1" height="11.7"/>
		<rect x="1404.1" y="765.9" class="st12" width="3.1" height="1.7"/>
	</g>
	<g>
		<rect x="1361.1" y="773.5" class="st11" width="3.1" height="11.7"/>
		<rect x="1361.1" y="783.4" class="st12" width="3.1" height="1.7"/>
	</g>
	<g>
		<rect x="1370.7" y="773.5" class="st11" width="3.1" height="11.7"/>
		<rect x="1370.7" y="783.4" class="st12" width="3.1" height="1.7"/>
	</g>
	<g>
		<rect x="1382.1" y="773.5" class="st11" width="3.1" height="11.7"/>
		<rect x="1382.1" y="783.4" class="st12" width="3.1" height="1.7"/>
	</g>
	<g>
		<rect x="1394" y="773.5" class="st11" width="3.1" height="11.7"/>
		<rect x="1394" y="783.4" class="st12" width="3.1" height="1.7"/>
	</g>
	<g>
		<rect x="1404.1" y="773.5" class="st11" width="3.1" height="11.7"/>
		<rect x="1404.1" y="783.4" class="st12" width="3.1" height="1.7"/>
	</g>
	<g>
		<rect x="1361.1" y="789.8" class="st11" width="3.1" height="11.7"/>
		<rect x="1361.1" y="799.7" class="st12" width="3.1" height="1.7"/>
	</g>
	<g>
		<rect x="1370.7" y="789.8" class="st11" width="3.1" height="11.7"/>
		<rect x="1370.7" y="799.7" class="st12" width="3.1" height="1.7"/>
	</g>
	<g>
		<rect x="1382.1" y="789.8" class="st11" width="3.1" height="11.7"/>
		<rect x="1382.1" y="799.7" class="st12" width="3.1" height="1.7"/>
	</g>
	<g>
		<rect x="1394" y="789.8" class="st11" width="3.1" height="11.7"/>
		<rect x="1394" y="799.7" class="st12" width="3.1" height="1.7"/>
	</g>
	<g>
		<rect x="1404.1" y="789.8" class="st11" width="3.1" height="11.7"/>
		<rect x="1404.1" y="799.7" class="st12" width="3.1" height="1.7"/>
	</g>
	<rect x="1358" y="676.5" class="st13" width="54" height="1.2"/>
	<rect x="1358" y="747.8" class="st13" width="54" height="1.2"/>
</g>
<g>
	<g>
		<g>
			<rect x="1544" y="688" class="st14" width="49" height="124"/>
		</g>
		<polygon class="st15" points="1593,704.5 1544,753 1544,796 1593,725 		"/>
		<polyline class="st15" points="1544,804 1593,740 1593,812 1544,812 1544,805.1 		"/>
		<line class="st16" x1="1557.5" y1="689" x2="1558.5" y2="813"/>
	</g>
	<line class="st16" x1="1578.5" y1="689" x2="1580.5" y2="813"/>
</g>
<g>
	<rect x="1472" y="646" class="st17" width="54" height="166"/>
	<rect x="1472" y="646" class="st18" width="54" height="22"/>
	<rect x="1472" y="713.2" class="st18" width="54" height="2.7"/>
	<rect x="1472" y="741.2" class="st18" width="54" height="2.7"/>
	<rect x="1476" y="673" class="st19" width="16" height="3"/>
	<rect x="1504" y="673" class="st19" width="16" height="3"/>
	<rect x="1504" y="683" class="st19" width="16" height="3"/>
	<rect x="1504" y="693" class="st19" width="16" height="3"/>
	<rect x="1504" y="703" class="st19" width="16" height="3"/>
	<rect x="1476" y="683" class="st19" width="16" height="3"/>
	<rect x="1476" y="693" class="st19" width="16" height="3"/>
	<rect x="1476" y="703" class="st19" width="16" height="3"/>
	<rect x="1476" y="720" class="st19" width="16" height="3"/>
	<rect x="1504" y="720" class="st19" width="16" height="3"/>
	<rect x="1504" y="728" class="st19" width="16" height="3"/>
	<rect x="1476" y="728" class="st19" width="16" height="3"/>
	<rect x="1476" y="753" class="st19" width="16" height="3"/>
	<rect x="1504" y="753" class="st19" width="16" height="3"/>
	<rect x="1504" y="764" class="st19" width="16" height="3"/>
	<rect x="1504" y="775" class="st19" width="16" height="3"/>
	<rect x="1504" y="786" class="st19" width="16" height="3"/>
	<rect x="1504" y="796" class="st19" width="16" height="3"/>
	<rect x="1476" y="764" class="st19" width="16" height="3"/>
	<rect x="1476" y="775" class="st19" width="16" height="3"/>
	<rect x="1476" y="786" class="st19" width="16" height="3"/>
	<rect x="1476" y="796" class="st19" width="16" height="3"/>
</g>
<g>
	<rect x="1392" y="716" class="st20" width="61" height="96"/>
	<g>
		<rect x="1396" y="722" class="st21" width="13" height="8"/>
		<rect x="1396" y="722" class="st22" width="3.6" height="8"/>
	</g>
	<g>
		<rect x="1396" y="735" class="st21" width="13" height="8"/>
		<rect x="1396" y="735" class="st22" width="3.6" height="8"/>
	</g>
	<g>
		<rect x="1416" y="722" class="st21" width="13" height="8"/>
		<rect x="1416" y="722" class="st22" width="3.6" height="8"/>
	</g>
	<g>
		<rect x="1416" y="735" class="st21" width="13" height="8"/>
		<rect x="1416" y="735" class="st22" width="3.6" height="8"/>
	</g>
	<g>
		<rect x="1436" y="722" class="st21" width="13" height="8"/>
		<rect x="1436" y="722" class="st22" width="3.6" height="8"/>
	</g>
	<g>
		<rect x="1436" y="735" class="st21" width="13" height="8"/>
		<rect x="1436" y="735" class="st22" width="3.6" height="8"/>
	</g>
	<g>
		<rect x="1396" y="748" class="st21" width="13" height="8"/>
		<rect x="1396" y="748" class="st22" width="3.6" height="8"/>
	</g>
	<g>
		<rect x="1396" y="761" class="st21" width="13" height="8"/>
		<rect x="1396" y="761" class="st22" width="3.6" height="8"/>
	</g>
	<g>
		<rect x="1416" y="748" class="st21" width="13" height="8"/>
		<rect x="1416" y="748" class="st22" width="3.6" height="8"/>
	</g>
	<g>
		<rect x="1416" y="761" class="st21" width="13" height="8"/>
		<rect x="1416" y="761" class="st22" width="3.6" height="8"/>
	</g>
	<g>
		<rect x="1436" y="748" class="st21" width="13" height="8"/>
		<rect x="1436" y="748" class="st22" width="3.6" height="8"/>
	</g>
	<g>
		<rect x="1436" y="761" class="st21" width="13" height="8"/>
		<rect x="1436" y="761" class="st22" width="3.6" height="8"/>
	</g>
	<g>
		<rect x="1396" y="775" class="st21" width="13" height="8"/>
		<rect x="1396" y="775" class="st22" width="3.6" height="8"/>
	</g>
	<g>
		<rect x="1396" y="788" class="st21" width="13" height="8"/>
		<rect x="1396" y="788" class="st22" width="3.6" height="8"/>
	</g>
	<g>
		<rect x="1416" y="775" class="st21" width="13" height="8"/>
		<rect x="1416" y="775" class="st22" width="3.6" height="8"/>
	</g>
	<g>
		<rect x="1416" y="788" class="st21" width="13" height="8"/>
		<rect x="1416" y="788" class="st22" width="3.6" height="8"/>
	</g>
	<g>
		<rect x="1436" y="775" class="st21" width="13" height="8"/>
		<rect x="1436" y="775" class="st22" width="3.6" height="8"/>
	</g>
	<g>
		<rect x="1436" y="788" class="st21" width="13" height="8"/>
		<rect x="1436" y="788" class="st22" width="3.6" height="8"/>
	</g>
	<rect x="1402" y="703" class="st20" width="40" height="13"/>
</g>
<g>
	<rect x="1315" y="756" class="st23" width="39" height="56"/>
	<rect x="1318" y="760" class="st24" width="3" height="9"/>
	<rect x="1324" y="760" class="st24" width="3" height="9"/>
	<rect x="1342" y="760" class="st24" width="3" height="9"/>
	<rect x="1348" y="760" class="st24" width="3" height="9"/>
	<rect x="1318" y="770" class="st24" width="3" height="9"/>
	<rect x="1324" y="770" class="st24" width="3" height="9"/>
	<rect x="1342" y="770" class="st24" width="3" height="9"/>
	<rect x="1348" y="770" class="st24" width="3" height="9"/>
	<rect x="1318" y="783" class="st24" width="3" height="9"/>
	<rect x="1324" y="783" class="st24" width="3" height="9"/>
	<rect x="1342" y="783" class="st24" width="3" height="9"/>
	<rect x="1348" y="783" class="st24" width="3" height="9"/>
	<rect x="1318" y="793" class="st24" width="3" height="9"/>
	<rect x="1324" y="793" class="st24" width="3" height="9"/>
	<rect x="1342" y="793" class="st24" width="3" height="9"/>
	<rect x="1348" y="793" class="st24" width="3" height="9"/>
	<rect x="1330" y="760" class="st24" width="8" height="42"/>
</g>
<g>
	<rect x="1577" y="725" class="st25" width="38" height="87"/>
	<g>
		<rect x="1579" y="729" class="st26" width="34" height="6"/>
		<rect x="1579" y="733.1" class="st27" width="34" height="1.9"/>
	</g>
	<g>
		<rect x="1579" y="737" class="st26" width="34" height="6"/>
		<rect x="1579" y="741.1" class="st27" width="34" height="1.9"/>
	</g>
	<g>
		<rect x="1579" y="745" class="st26" width="34" height="6"/>
		<rect x="1579" y="749.1" class="st27" width="34" height="1.9"/>
	</g>
	<g>
		<rect x="1579" y="753" class="st26" width="34" height="6"/>
		<rect x="1579" y="757.1" class="st27" width="34" height="1.9"/>
	</g>
	<g>
		<rect x="1579" y="761" class="st26" width="34" height="6"/>
		<rect x="1579" y="765.1" class="st27" width="34" height="1.9"/>
	</g>
	<g>
		<rect x="1579" y="769" class="st26" width="34" height="6"/>
		<rect x="1579" y="773.1" class="st27" width="34" height="1.9"/>
	</g>
	<g>
		<rect x="1579" y="777" class="st26" width="34" height="6"/>
		<rect x="1579" y="781.1" class="st27" width="34" height="1.9"/>
	</g>
	<g>
		<rect x="1579" y="785" class="st26" width="34" height="6"/>
		<rect x="1579" y="789.1" class="st27" width="34" height="1.9"/>
	</g>
	<g>
		<rect x="1579" y="793" class="st26" width="34" height="6"/>
		<rect x="1579" y="797.1" class="st27" width="34" height="1.9"/>
	</g>
	<g>
		<rect x="1579" y="801" class="st26" width="34" height="6"/>
		<rect x="1579" y="805.1" class="st27" width="34" height="1.9"/>
	</g>
</g>
<path class="st2" d="M742.2,778c-4.2-0.1,57.8-19.6,104.8-17c10.2,0.6,139,28,147,30s81-8,91-10s180.6,31,180.6,31H776L742.2,778z"
	/>
<polygon class="st2" points="1920,778 1827,788 1808,783 1670.9,812 1921,812 "/>
<polygon class="st6" points="1921,816.9 1289,817 776,812 1472,812 1921,812 "/>
<linearGradient id="SVGID_3_" gradientUnits="userSpaceOnUse" x1="689.0823" y1="943.6534" x2="627.7175" y2="1111.0121">
	<stop  offset="0" style="stop-color:#768C3D"/>
	<stop  offset="1" style="stop-color:#627433"/>
</linearGradient>
<path class="st28" d="M1,847c0,0,203.2-41.3,521,12c322.7,54.2,840.6,223.1,840.6,221H0L1,847z"/>
<linearGradient id="SVGID_4_" gradientUnits="userSpaceOnUse" x1="1320.5127" y1="890.3895" x2="1323.3026" y2="1031.2808">
	<stop  offset="0" style="stop-color:#768C3D"/>
	<stop  offset="1" style="stop-color:#6C8038"/>
</linearGradient>
<polygon class="st29" points="720,900 1920,829 1920,1080 1363,1080 "/>
<g>
	<g>
		<circle class="st30" cx="1580" cy="208" r="60"/>
		<circle class="st31" cx="1580" cy="208" r="70"/>
		<circle class="st32" cx="1580" cy="208" r="80"/>
	</g>
	<circle class="st33" cx="1580" cy="208" r="90"/>
	<circle class="st34" cx="1580" cy="207" r="105"/>
</g>
<g>
	<g>
		<path class="st36" d="M15.2,306c-23.2,26.1,20,31.5,80.5,27c15,15,121.1,10.9,174.2,3c47,7,65.7-0.5,62.8-16
			c-13.3-22.9-44.5-45.1-84-36c2.3-22.3-34.1-33.4-50.4-17c-24.6-19.1-44.1-17.6-58.4,5c-36.3-17-53.8-7-63.7,14
			C34.1,266.8,23.3,284.9,15.2,306z"/>
	</g>
	<path class="st37" d="M216.9,259.2c19.7,3.7,26.2,10,23.1,25.8l8.7-1.3C250.1,267.8,234.5,258.4,216.9,259.2z"/>
	<path class="st37" d="M288,285c41,28,47.8,45.4,11.3,53.6c5.8,0.1,11.3-0.3,16.2-1.1C355,330,320.8,294.9,288,285z"/>
	<path class="st37" d="M224,281.6c15.6-2.8,21.4,3.8,21,16.4C243,287.4,235.9,282.1,224,281.6z"/>
	<path class="st37" d="M228.6,295.1c19.7,1.4,26.5,10.6,20.4,27.7C248.6,308.8,241.8,299.6,228.6,295.1z"/>
	<path class="st37" d="M170.9,254c8.8,3.5,16.7,9.6,18.1,15l9-2C189.9,260.1,181,255,170.9,254z"/>
	<path class="st38" d="M92.2,267.2C86.4,270.1,81,276.4,76,286l7,3C79.5,283.6,83.9,276,92.2,267.2z"/>
	<path class="st38" d="M28.6,283.8c-3.6,8.2-5,15.5-1.6,21.2l-12,1C17.8,297.7,22,290,28.6,283.8z"/>
	<path class="st38" d="M103,323c-34,11-92-3-76-18l-12,1c-23.6,28.4,25,31,81,27L103,323z"/>
	<path class="st38" d="M237.1,339.8C182.4,339,134.8,334.9,103,323l-7,10C107,345,176,345,237.1,339.8z"/>
</g>
<g>
	<path class="st36" d="M94.4,99c-21.7,2.8-40.8,8-54.4,18.4c-6.8,5.2-7.5,15.1-1.8,21.4c20.4,22.2,60.2,33.6,116.8,35.9
		c85.8,17.6,172.2,10.9,258.8-9.7c81.1,3.9,85.7-57.8-5.6-72.9c-7.4-31.9-27.5-42.1-62.6-26.6c-14.8-30.1-37.2-49.1-75.6-27.3
		c-35.1-27.8-71.5-18.4-86.4,26.9C136.7,50.7,109.6,57.8,94.4,99z"/>
	<path class="st37" d="M320.1,106.3c36,11.3,40.3,27.7,21,48c5.1-3.5,10.1-7.2,14.6-11.2c10.4-9.2,6.8-26.2-6.5-30.3
		C340.6,110,330.7,108,320.1,106.3z"/>
	<path class="st37" d="M302.7,28.8c23.3,8.7,29.5,21,27.3,35.2l16,1C334,42.4,319.8,29.2,302.7,28.8z"/>
	<path class="st37" d="M378.1,58.5c17,5.3,22.2,16.5,16.9,33.5h14C404.7,71.3,394.4,58.1,378.1,58.5z"/>
	<path class="st37" d="M423.2,95.1C462,115,480,155,429,165c58.5-1.5,66.1-50.7,1.1-68L423.2,95.1z"/>
	<path class="st37" d="M262,43c18.8-8.2,29.1-3.2,31,15C288.3,45.4,279.6,38.3,262,43z"/>
	<path class="st37" d="M372,87.3c22.9-4.3,30.8,5.3,27.1,25.7C399.1,100.8,383.2,87.5,372,87.3z"/>
	<path class="st38" d="M154.5,175l9.5-17c68.6,24,150.2,22.5,236.6,10C314.7,186.6,232.2,191.2,154.5,175z"/>
	<path class="st38" d="M164,158c-20,27-112-7-125.6-39.1c-22.3,23.5,43.4,55.9,116.7,55.8L164,158z"/>
</g>
<g>
	<path class="st36" d="M289,272c7.1,15.6,30.1,20.1,61,19c65.6,13.3,147.4,10.5,234,3c49.3-12.3,48.5-33.9,7-46
		c-13.4-26.7-33.5-31.8-67-18c-21-23.5-39.4-30.8-72-12c-28.3-17.3-48.9-13.6-63,8c-27.7-17.8-42.8-10.3-52,9
		C301.5,232.9,284,244.2,289,272z"/>
	<path class="st37" d="M539,225c27-2,32,19,41,31l11-8C580.9,222.5,554.5,218.2,539,225z"/>
	<path class="st37" d="M580,256c15.2,2.9,36,8,36.2,24c17.8-16-12.3-29.6-25.2-32L580,256z"/>
	<path class="st37" d="M471,209.4c18,1.6,41,12.6,40,25.6l13-5C508.1,210.4,490.5,203.5,471,209.4z"/>
	<path class="st37" d="M478,238c24.3-9.7,39.4-3.6,46,17C512.1,241,497,234.5,478,238z"/>
	<path class="st37" d="M475,238c-16.3-9.2-29.6-7.6-40,5C444.8,238.1,460,238,475,238z"/>
	<path class="st37" d="M452,218c-15.3-9.5-30.1-14.2-44.1-8.7c15.3-0.9,25.6,1.7,29.1,8.7H452z"/>
	<path class="st38" d="M584,294c-80.5,1-154.8-2.2-219-12l-15,9C415,305,498,303,584,294z"/>
	<path class="st38" d="M288.3,267.1c1.5,13.2,25.9,18.6,76.7,14.9l-15,9C315.4,291.9,289,287,288.3,267.1z"/>
</g>
<linearGradient id="SVGID_5_" gradientUnits="userSpaceOnUse" x1="235" y1="916" x2="388" y2="916">
	<stop  offset="0" style="stop-color:#1C7332"/>
	<stop  offset="1" style="stop-color:#19652C"/>
</linearGradient>
<polygon class="st39" points="235,914 262,932 354,933 388,922 361,924 381,910 354,922 353,913 345,920 339,913 339,918 325,907 
	330,918 308,902 309,918 302,909 300,918 269,899 284,916 266,909 274,916 251,908 259,919 "/>
<path class="st40" d="M1543.4,959c4.8-0.5,9.4-0.6,13.8,0h6.9c2.4-1.2,5.7-0.8,9.2,0h7.7c1.1-1.8,3.7-0.8,6.1,0l10.8-5.3l-7.7,2.3
	l3.1-8.4l-6.1,8.4v-10.6l-3.8,6.8l-9.2-6.8l4.6,5.3l-13.1-10.6l8.5,10.6l-9.2-5.3v7.6l-9.2-9.1l4.6,9.1l-11.5-8.4l6.9,7.6l-16.1-4.6
	l10.8,4.6l-18.4-1.5l10.8,3H1525L1543.4,959z"/>
<polygon class="st40" points="1389,914 1405,914 1408,912 1405,912 1405,910 1404,912 1403,909 1403,911 1400,909 1400,911 
	1397,908 1397,911 1394,908 1395,913 1392,910 1392,912 1387,910 1389,912 1386,912 "/>
<polygon class="st40" points="1786,906 1818,906 1823,900 1818,903 1818,895 1816,900 1813,896 1813,900 1808,897 1808,900 
	1800,895 1802,900 1796,895 1798,904 1792,898 1792,900 1789,895 1788,902 1782,900 "/>
</svg>
